<svg width="174" height="260" xmlns="http://www.w3.org/2000/svg">
 <g transform="rotate(180 86.99999999999999,132) " class="graph" id="graph1" display="inline">
  <!-- a -->
  <!-- b -->
  <g class="node" id="node3" transform="rotate(180 30,93.75) ">
   <title transform="translate(0,-0.25) translate(0,-0.25) translate(0,-0.25) translate(0,-0.25) translate(0,-0.25) translate(0,-0.25) translate(0,-0.25) translate(0,-0.25) translate(0,-0.25) ">b</title>
   <ellipse id="svg_24" ry="18" rx="27" cy="93.75" cx="30" stroke="black" fill="none"/>
   <text id="svg_25" font-size="14" font-family="Times,serif" y="97.45" x="30" text-anchor="middle">B</text>
  </g>
  <!-- a&#45;&gt;b -->
  <!-- c -->
  <g class="edge" id="edge8">
   <title transform="translate(0,0.25) translate(0,-0.25) translate(0.25,0) translate(0,-0.25) translate(0,-0.25) translate(0.25,0) translate(0,-0.25) translate(0.25,0) translate(0.25,0) translate(0.25,0) translate(0.25,0) translate(0.25,0) translate(0,-0.25) translate(0,-0.25) translate(0,-0.25) translate(0,-0.25) translate(0,-0.25) translate(0,-0.25) ">c-&gt;d</title>
   <path id="svg_36" d="m94.4004,110.985c-4.3619,8.48199 -9.79729,19.05101 -14.6917,28.56801" stroke="black" fill="none"/>
   <polygon id="svg_37" points="82.74040222167969,141.3109893798828 75.0542984008789,148.60299682617188 76.5154037475586,138.1090087890625 82.74040222167969,141.3109893798828 " stroke="black" fill="black"/>
  </g>
  <g class="node" id="node5" transform="rotate(180 102,93.75) ">
   <title transform="translate(0,-0.25) translate(0,-0.25) translate(0,-0.25) translate(0,-0.25) translate(0,-0.25) translate(0,-0.25) translate(0,-0.25) translate(0,-0.25) translate(0,-0.25) ">c</title>
   <ellipse id="svg_28" ry="18" rx="27" cy="93.75" cx="102" stroke="black" fill="none"/>
   <text id="svg_29" font-size="14" font-family="Times,serif" y="97.45" x="102" text-anchor="middle">C</text>
  </g>
  <!-- a&#45;&gt;c -->
  <!-- d -->
  <g class="node" id="node7" transform="rotate(180 65.99999999999999,167) ">
   <title transform="translate(0,-0.25) translate(0,-0.25) translate(0,-0.25) translate(0,-0.25) ">d</title>
   <ellipse id="svg_32" ry="18" rx="27" cy="167" cx="66" stroke="black" fill="none"/>
   <text id="svg_33" font-size="14" font-family="Times,serif" y="170.7" x="66" text-anchor="middle">D</text>
  </g>
  <!-- b&#45;&gt;d -->
  <g class="edge" id="edge6">
   <title transform="translate(0,0.25) translate(0.25,0) translate(0,0.25) translate(0,-0.25) translate(-0.25,0) translate(-0.25,0) translate(-0.25,0) translate(-0.25,0) translate(-0.25,0) translate(0,-0.25) translate(0,-0.25) translate(-0.25,0) translate(0,-0.25) translate(-0.25,0) translate(0,-0.25) translate(0,-0.25) translate(0,-0.25) translate(0,-0.25) translate(0,-0.25) translate(0,-0.25) translate(0,-0.25) ">b-&gt;d</title>
   <path id="svg_34" d="m36.8496,110.985c4.3619,8.48199 9.7973,19.05101 14.6917,28.56801" stroke="black" fill="none"/>
   <polygon id="svg_35" points="54.73460006713867,138.1090087890625 56.195701599121094,148.60299682617188 48.50960159301758,141.3109893798828 54.73460006713867,138.1090087890625 " stroke="black" fill="black"/>
  </g>
  <!-- c&#45;&gt;d -->
  <!-- e -->
  <g class="node" id="node10" transform="rotate(180 66,240) ">
   <title>e</title>
   <ellipse id="svg_38" ry="18" rx="27" cy="240" cx="66" stroke="black" fill="none"/>
   <text id="svg_39" font-size="14" font-family="Times,serif" y="243.7" x="66" text-anchor="middle">object()</text>
  </g>
  <!-- d&#45;&gt;e -->
  <g class="edge" id="edge10">
   <title transform="translate(0,-0.07692307978868484) translate(0,-0.07692307978868484) translate(0,-0.07692307978868484) translate(0,-0.07692307978868484) translate(0,-0.07692307978868484) translate(0,-0.07692307978868484) translate(0,-0.07692307978868484) translate(0,-0.07692307978868484) translate(0,-0.07692307978868484) translate(0,-0.07692307978868484) translate(0,-0.07692307978868484) translate(0,-0.07692307978868484) translate(0,-0.07692307978868484) translate(0,-0.07692307978868484) translate(0,-0.07692307978868484) translate(0,-0.07692307978868484) translate(0,-0.07692307978868484) translate(0,-0.07692307978868484) ">d-&gt;e</title>
   <path id="svg_40" d="m66,184.91884c0,7.71391 0,16.9841 0,25.58421" stroke="black" fill="none"/>
   <polygon id="svg_41" points="69.5000991821289,210.511135391891 66,220.511135391891 62.500099182128906,210.51104383915663 69.5000991821289,210.511135391891 " stroke="black" fill="black"/>
  </g>
  <g class="node" id="node1" transform="rotate(180 102,23) ">
   <title>a</title>
   <ellipse id="svg_22" ry="18" rx="27" cy="23" cx="102" stroke="black" fill="none"/>
   <text id="svg_23" font-size="14" font-family="Times,serif" y="26.7" x="102" text-anchor="middle">A</text>
  </g>
  <g id="svg_42" class="edge">
   <title transform="translate(0,1) translate(0,-1) translate(0,-0.25) translate(0,-0.25) translate(0,-0.25) translate(0,-0.25) translate(0,-0.25) translate(0,-0.25) translate(0,-0.25) translate(0,-0.25) translate(0,-0.25) translate(0,-0.25) translate(0,-0.25) translate(98,38.453861236572266) scale(1,0.9438080191612244) translate(-98,-38.453861236572266) translate(98,40.743309020996094) scale(1,1.0595375299453735) translate(-98,-40.743309020996094) translate(98,74.046142578125) scale(1,0.9438080191612244) translate(-98,-74.046142578125) ">a-&gt;c</title>
   <path id="svg_44" d="m101.4999,40.45386c0,7.28044 0,16.02974 0,24.14657" stroke="black" fill="none"/>
   <polygon id="svg_45" points="105,64.60806238651276 101.4999008178711,74.046142578125 98,64.60797597830788 105,64.60806238651276 " stroke="black" fill="black"/>
  </g>
  <title>g</title>
  <g id="edge8" class="edge" transform="rotate(15.900007247924805 129.67913818359358,138.62490844726565) ">
   <title transform="translate(-0.7470481395721436,-0.5931026339530945) translate(2,0) translate(-2,0) translate(0,1) translate(0,-1) translate(0.07692307978868484,0) translate(0,-0.07692307978868484) translate(0.07692307978868484,0) translate(0,-0.07692307978868484) translate(0.07692307978868484,0) translate(0.07692307978868484,0) translate(0,-0.07692307978868484) translate(0.07692307978868484,0) translate(0.07692307978868484,0) translate(0.07692307978868484,0) translate(0.07692307978868484,0) translate(0.07692307978868484,0) translate(0,-0.07692307978868484) translate(0,-0.07692307978868484) translate(0,-0.07692307978868484) translate(0,-0.07692307978868484) translate(0,-0.07692307978868484) translate(0,-0.07692307978868484) translate(0,-0.07692307978868484) translate(0,-0.07692307978868484) translate(0,-0.07692307978868484) translate(0,-0.07692307978868484) translate(0,-0.07692307978868484) translate(0,-0.07692307978868484) translate(0,-0.07692307978868484) translate(0,-0.07692307978868484) translate(0,-0.07692307978868484) translate(0,-0.07692307978868484) translate(0,-0.07692307978868484) translate(0,-0.07692307978868484) translate(0,-0.07692307978868484) translate(0,-0.07692307978868484) translate(0,-0.07692307978868484) translate(0,-0.07692307978868484) translate(0,-0.07692307978868484) translate(0,-0.07692307978868484) translate(0,-0.07692307978868484) translate(0,0.07692307978868484) translate(0,0.07692307978868484) translate(-0.07692307978868484,0) translate(-0.07692307978868484,0) translate(93.5945053100586,235.71517944335938) scale(1,0.9925805926322937) translate(-93.5945053100586,-235.71517944335938) ">a-&gt;e</title>
   <path d="m92.84746,42.12776c17.26484,9.28849 39.13365,24.76941 49.49258,43.3464c24.17076,47.47449 -3.45299,106.30161 -23.01981,140.3595" id="path2365" stroke="#000000" fill="none"/>
   <polygon points="122.67653584480286,227.85454446077347 113.56526112556458,235.12206155061722 115.63360524177551,224.34601479768753 122.67653584480286,227.85454446077347 " id="polygon2367" stroke="#000000" fill="#000000"/>
  </g>
  <polygon transform="rotate(-13 84.24687194824169,217.88896179199216) " id="svg_27" points="88.08993530273438,215.8439483642578 80.40380859375,223.13595581054688 81.86492919921875,212.6419677734375 88.08993530273438,215.8439483642578 " stroke="black" fill="black"/>
  <polygon transform="rotate(-37.364540100097656 45.00000000000009,220.11540222167972) " id="svg_30" points="48.84306335449219,218.0703887939453 41.15693664550781,225.36239624023438 42.61805725097656,214.868408203125 48.84306335449219,218.0703887939453 " stroke="black" fill="black"/>
  <line transform="rotate(-1.1771448850631714 97.48715972900301,163.3752593994141) " id="svg_48" y2="216.01062" x2="82.5076" y1="110.73992" x1="112.46672" stroke-linecap="null" stroke-linejoin="null" stroke="black" fill="none"/>
  <line id="svg_49" y2="219" x2="43.5" y1="111.5" x1="24.5" stroke-linecap="null" stroke-linejoin="null" stroke="black" fill="none"/>
 </g>
 <metadata id="metadata2400">image/svg+xml</metadata>
</svg>